<svg xmlns="http://www.w3.org/2000/svg" viewBox="0 0 415.11 415.11"><defs><style>.cls-1{fill:#fff;stroke-width:3px;}.cls-1,.cls-2{stroke:#fff;stroke-miterlimit:10;}.cls-2{fill:none;stroke-width:19px;}</style></defs><g id="Layer_2" data-name="Layer 2"><path class="cls-1" d="M212.49,439.67c14.2,35.13,73.52,45.74,70.31,87.58l-.12-.52c.68,6,2.72,12.7,9.19,13.79,9.64,2.25,20.56,4.3,30.1.85l.4-.62,1.4-204.18L300,294.74c-.9,1.9-1.89,3.8-2.95,5.7L296,461a10.25,10.25,0,0,0-3.21-4c-4.51-2.27-10.79-1.95-15.7-2.79-63.54-8.42-65.37-91-21.13-125.56C214.17,349.35,190.24,387.09,212.49,439.67Z" transform="translate(-98.45 -182.66)"/><path class="cls-1" d="M297.58,308.2c-10.39-53.81,106.51-76.34,116.85-22.52S307.92,362,297.58,308.2Z" transform="translate(-98.45 -182.66)"/><circle class="cls-2" cx="207.55" cy="207.55" r="198"/></g></svg>